<svg width="100" height="100" viewBox="0 0 100 100" fill="none" xmlns="http://www.w3.org/2000/svg">
<g clip-path="url(#clip0_24_436)">
<rect width="100" height="100" fill="white"/>
<g clip-path="url(#clip1_24_436)">
<rect x="33.2444" y="58.3455" width="20" height="57.811" transform="rotate(-39.4143 33.2444 58.3455)" fill="#D9D9D9"/>
<rect x="33.2444" y="58.3455" width="20" height="57.811" transform="rotate(-39.4143 33.2444 58.3455)" fill="url(#paint0_linear_24_436)"/>
<rect x="51" y="90" width="49" height="10" fill="white"/>
<rect x="15" y="30" width="20" height="45" transform="rotate(-90 15 30)" fill="#D9D9D9"/>
<rect x="15" y="30" width="20" height="45" transform="rotate(-90 15 30)" fill="url(#paint1_linear_24_436)"/>
<rect x="15" y="60" width="20" height="45" transform="rotate(-90 15 60)" fill="#D9D9D9"/>
<rect x="15" y="60" width="20" height="45" transform="rotate(-90 15 60)" fill="url(#paint2_linear_24_436)"/>
<path d="M60 60C63.283 60 66.5339 59.3534 69.5671 58.097C72.6002 56.8406 75.3562 54.9991 77.6777 52.6777C79.9991 50.3562 81.8406 47.6002 83.097 44.5671C84.3534 41.5339 85 38.283 85 35C85 31.717 84.3534 28.4661 83.097 25.4329C81.8406 22.3998 79.9991 19.6438 77.6777 17.3223C75.3562 15.0009 72.6002 13.1594 69.5671 11.903C66.5339 10.6466 63.283 10 60 10L60 35L60 60Z" fill="#D9D9D9"/>
<path d="M60 60C63.283 60 66.5339 59.3534 69.5671 58.097C72.6002 56.8406 75.3562 54.9991 77.6777 52.6777C79.9991 50.3562 81.8406 47.6002 83.097 44.5671C84.3534 41.5339 85 38.283 85 35C85 31.717 84.3534 28.4661 83.097 25.4329C81.8406 22.3998 79.9991 19.6438 77.6777 17.3223C75.3562 15.0009 72.6002 13.1594 69.5671 11.903C66.5339 10.6466 63.283 10 60 10L60 35L60 60Z" fill="url(#paint3_linear_24_436)"/>
<rect x="49" y="22" width="11" height="33" fill="#D9D9D9"/>
<rect x="49" y="22" width="11" height="33" fill="url(#paint4_linear_24_436)"/>
<rect x="31" y="30" width="35" height="10" rx="5" fill="white"/>
<rect x="15" y="10" width="20" height="80" fill="url(#paint5_linear_24_436)"/>
</g>
<rect x="55" y="45" width="15" height="45" fill="url(#paint6_linear_24_436)"/>
<rect x="40" y="75" width="15" height="45" transform="rotate(-90 40 75)" fill="url(#paint7_linear_24_436)"/>
</g>
<defs>
<linearGradient id="paint0_linear_24_436" x1="49.8449" y1="9.41113" x2="-0.631483" y2="70.8309" gradientUnits="userSpaceOnUse">
<stop stop-color="#00FFAE"/>
<stop offset="1" stop-color="#009969"/>
</linearGradient>
<linearGradient id="paint1_linear_24_436" x1="35" y1="49" x2="-45" y2="49" gradientUnits="userSpaceOnUse">
<stop stop-color="#00FFAE"/>
<stop offset="1" stop-color="#009969"/>
</linearGradient>
<linearGradient id="paint2_linear_24_436" x1="65" y1="105" x2="-15" y2="105" gradientUnits="userSpaceOnUse">
<stop stop-color="#00FFAE"/>
<stop offset="1" stop-color="#009969"/>
</linearGradient>
<linearGradient id="paint3_linear_24_436" x1="60" y1="10" x2="60" y2="90" gradientUnits="userSpaceOnUse">
<stop stop-color="#00FFAE"/>
<stop offset="1" stop-color="#009969"/>
</linearGradient>
<linearGradient id="paint4_linear_24_436" x1="34.5" y1="10" x2="34.5" y2="90" gradientUnits="userSpaceOnUse">
<stop stop-color="#00FFAE"/>
<stop offset="1" stop-color="#009969"/>
</linearGradient>
<linearGradient id="paint5_linear_24_436" x1="25" y1="10" x2="25" y2="90" gradientUnits="userSpaceOnUse">
<stop stop-color="#00FFAE"/>
<stop offset="1" stop-color="#009969"/>
</linearGradient>
<linearGradient id="paint6_linear_24_436" x1="62.5" y1="45" x2="62.5" y2="90" gradientUnits="userSpaceOnUse">
<stop stop-color="#FF0000"/>
<stop offset="1" stop-color="#990000"/>
</linearGradient>
<linearGradient id="paint7_linear_24_436" x1="70" y1="105" x2="25" y2="105" gradientUnits="userSpaceOnUse">
<stop stop-color="#FF0000"/>
<stop offset="1" stop-color="#990000"/>
</linearGradient>
<clipPath id="clip0_24_436">
<rect width="100" height="100" fill="white"/>
</clipPath>
<clipPath id="clip1_24_436">
<rect width="100" height="100" fill="white"/>
</clipPath>
</defs>
</svg>
