<svg width="500" height="500" viewBox="0 0 500 500" fill="none" xmlns="http://www.w3.org/2000/svg">
<rect x="84" y="130" width="50" height="240" fill="url(#paint0_linear_1_22)"/>
<rect x="213.282" y="262.282" width="50" height="137.075" transform="rotate(-135 213.282 262.282)" fill="url(#paint1_linear_1_22)"/>
<rect x="99" y="165.355" width="50" height="149.239" transform="rotate(-45 99 165.355)" fill="url(#paint2_linear_1_22)"/>
<rect x="415.297" y="320" width="50" height="211" transform="rotate(90 415.297 320)" fill="url(#paint3_linear_1_22)"/>
<rect x="239.355" y="356.015" width="50" height="248.421" transform="rotate(-135 239.355 356.015)" fill="url(#paint4_linear_1_22)"/>
<rect x="415.297" y="130" width="50" height="211" transform="rotate(90 415.297 130)" fill="url(#paint5_linear_1_22)"/>
<path d="M87.768 397V382.048H90.144L93.048 388.912L95.952 382.024H98.328V397H95.976V386.56L93.624 392.056H92.304L90.096 386.584V397H87.768ZM119.976 397L118.944 393.52H115.032L113.976 397H111.288L116.352 381.952H117.648L122.712 397H119.976ZM117 386.968L115.608 391.576H118.368L117 386.968ZM136.08 397V382.048H140.808C142.632 382.048 143.968 382.448 144.816 383.248C145.664 384.048 146.088 385.112 146.088 386.44C146.088 386.984 145.968 387.536 145.728 388.096C145.504 388.64 145.176 389.128 144.744 389.56C144.328 389.992 143.84 390.312 143.28 390.52L146.496 397H143.64L140.616 390.784H138.816V397H136.08ZM138.816 388.528H141C141.768 388.528 142.344 388.352 142.728 388C143.112 387.632 143.304 387.136 143.304 386.512C143.304 385.936 143.112 385.44 142.728 385.024C142.344 384.608 141.768 384.4 141 384.4H138.816V388.528ZM163.584 397V384.328H159.552V382.048H170.424V384.328H166.176V397H163.584ZM184.68 397V394.816H187.608V384.232H184.848V382.048H193.104V384.232H190.176V394.816H193.224V397H184.68ZM207.888 382.048H210.72L215.784 391.888L215.64 382.048H218.28V382.264C218.2 382.36 218.144 382.472 218.112 382.6C218.096 382.712 218.088 382.896 218.088 383.152V397H215.568L210.336 386.512V397H207.888V382.048ZM232.224 397V382.048H241.968V384.256H234.864V388.096H240.696V390.328H234.864V394.792H241.896V397H232.224Z" fill="#00879F"/>
<path d="M255.936 395.272L262.848 384.328H256.2V382.048H266.064V383.776L259.272 394.744H265.32C265.592 394.744 265.784 394.728 265.896 394.696C266.008 394.664 266.112 394.6 266.208 394.504H266.448V397H255.936V395.272ZM280.68 397V394.816H283.608V384.232H280.848V382.048H289.104V384.232H286.176V394.816H289.224V397H280.68ZM308.808 397.264C307.816 397.264 306.88 397.12 306 396.832C305.136 396.528 304.416 396.072 303.84 395.464L305.16 393.232L305.256 393.04L305.472 393.16C305.504 393.288 305.544 393.416 305.592 393.544C305.656 393.656 305.784 393.8 305.976 393.976C306.376 394.28 306.816 394.528 307.296 394.72C307.792 394.912 308.328 395.008 308.904 395.008C309.656 395.008 310.264 394.848 310.728 394.528C311.208 394.192 311.448 393.704 311.448 393.064C311.448 392.744 311.376 392.448 311.232 392.176C311.088 391.888 310.8 391.6 310.368 391.312C309.952 391.024 309.328 390.688 308.496 390.304C307.472 389.856 306.656 389.408 306.048 388.96C305.456 388.496 305.032 388 304.776 387.472C304.52 386.928 304.392 386.32 304.392 385.648C304.392 384.912 304.592 384.256 304.992 383.68C305.408 383.104 305.976 382.648 306.696 382.312C307.416 381.976 308.24 381.808 309.168 381.808C311.008 381.808 312.52 382.448 313.704 383.728L312.12 385.552L311.976 385.72L311.784 385.576C311.768 385.448 311.736 385.328 311.688 385.216C311.656 385.088 311.552 384.928 311.376 384.736C311.072 384.448 310.744 384.256 310.392 384.16C310.056 384.064 309.656 384.016 309.192 384.016C308.536 384.016 308.016 384.168 307.632 384.472C307.248 384.776 307.056 385.128 307.056 385.528C307.056 385.848 307.128 386.136 307.272 386.392C307.416 386.648 307.704 386.92 308.136 387.208C308.584 387.496 309.264 387.84 310.176 388.24C311.184 388.704 311.976 389.16 312.552 389.608C313.128 390.04 313.528 390.52 313.752 391.048C313.992 391.576 314.112 392.192 314.112 392.896C314.112 393.616 313.928 394.312 313.56 394.984C313.192 395.656 312.616 396.208 311.832 396.64C311.048 397.056 310.04 397.264 308.808 397.264ZM331.584 397V384.328H327.552V382.048H338.424V384.328H334.176V397H331.584ZM352.224 397V382.048H361.968V384.256H354.864V388.096H360.696V390.328H354.864V394.792H361.896V397H352.224ZM375.768 397V382.048H378.144L381.048 388.912L383.952 382.024H386.328V397H383.976V386.56L381.624 392.056H380.304L378.096 386.584V397H375.768ZM404.808 397.264C403.816 397.264 402.88 397.12 402 396.832C401.136 396.528 400.416 396.072 399.84 395.464L401.16 393.232L401.256 393.04L401.472 393.16C401.504 393.288 401.544 393.416 401.592 393.544C401.656 393.656 401.784 393.8 401.976 393.976C402.376 394.28 402.816 394.528 403.296 394.72C403.792 394.912 404.328 395.008 404.904 395.008C405.656 395.008 406.264 394.848 406.728 394.528C407.208 394.192 407.448 393.704 407.448 393.064C407.448 392.744 407.376 392.448 407.232 392.176C407.088 391.888 406.8 391.6 406.368 391.312C405.952 391.024 405.328 390.688 404.496 390.304C403.472 389.856 402.656 389.408 402.048 388.96C401.456 388.496 401.032 388 400.776 387.472C400.52 386.928 400.392 386.32 400.392 385.648C400.392 384.912 400.592 384.256 400.992 383.68C401.408 383.104 401.976 382.648 402.696 382.312C403.416 381.976 404.24 381.808 405.168 381.808C407.008 381.808 408.52 382.448 409.704 383.728L408.12 385.552L407.976 385.72L407.784 385.576C407.768 385.448 407.736 385.328 407.688 385.216C407.656 385.088 407.552 384.928 407.376 384.736C407.072 384.448 406.744 384.256 406.392 384.16C406.056 384.064 405.656 384.016 405.192 384.016C404.536 384.016 404.016 384.168 403.632 384.472C403.248 384.776 403.056 385.128 403.056 385.528C403.056 385.848 403.128 386.136 403.272 386.392C403.416 386.648 403.704 386.92 404.136 387.208C404.584 387.496 405.264 387.84 406.176 388.24C407.184 388.704 407.976 389.16 408.552 389.608C409.128 390.04 409.528 390.52 409.752 391.048C409.992 391.576 410.112 392.192 410.112 392.896C410.112 393.616 409.928 394.312 409.56 394.984C409.192 395.656 408.616 396.208 407.832 396.64C407.048 397.056 406.04 397.264 404.808 397.264Z" fill="#090086"/>
<defs>
<linearGradient id="paint0_linear_1_22" x1="109" y1="130" x2="109" y2="370" gradientUnits="userSpaceOnUse">
<stop stop-color="#00C8FF"/>
<stop offset="1" stop-color="#007899"/>
</linearGradient>
<linearGradient id="paint1_linear_1_22" x1="367.829" y1="294.809" x2="198.124" y2="126.517" gradientUnits="userSpaceOnUse">
<stop stop-color="#00C8FF"/>
<stop offset="1" stop-color="#007899"/>
</linearGradient>
<linearGradient id="paint2_linear_1_22" x1="148.749" y1="165.104" x2="-20.2498" y2="334.103" gradientUnits="userSpaceOnUse">
<stop stop-color="#00C8FF"/>
<stop offset="1" stop-color="#007899"/>
</linearGradient>
<linearGradient id="paint3_linear_1_22" x1="226.297" y1="425.297" x2="465.297" y2="425.5" gradientUnits="userSpaceOnUse">
<stop stop-color="#2600FF"/>
<stop offset="1" stop-color="#170099"/>
</linearGradient>
<linearGradient id="paint4_linear_1_22" x1="177.392" y1="393.959" x2="348.512" y2="565.079" gradientUnits="userSpaceOnUse">
<stop stop-color="#170099"/>
<stop offset="1" stop-color="#2600FF"/>
</linearGradient>
<linearGradient id="paint5_linear_1_22" x1="415.297" y1="235.5" x2="658.297" y2="235.297" gradientUnits="userSpaceOnUse">
<stop stop-color="#2600FF"/>
<stop offset="1" stop-color="#170099"/>
</linearGradient>
</defs>
</svg>
